<svg width="197" height="197" viewBox="0 0 197 197" fill="none" xmlns="http://www.w3.org/2000/svg">
<circle cx="98.5" cy="98.5" r="97" fill="#2872A8" stroke="black" stroke-width="3"/>
<path d="M27 93C47.8036 93 72.4571 93.5704 91 106" stroke="black" stroke-width="3" stroke-linecap="round"/>
<path d="M109 96C110.18 84.4609 113.313 71.7097 118.714 60.8697C121.495 55.2885 124.5 50.5 131.5 41" stroke="black" stroke-width="3" stroke-linecap="round"/>
<ellipse cx="83" cy="112.5" rx="12" ry="11.5" fill="black"/>
<ellipse cx="119" cy="98.5" rx="12" ry="11.5" fill="black"/>
<path d="M82.1524 145.412C72.7709 145.536 63.3826 145.435 54 145.435C55.8836 146.349 57.8744 147.311 59.9835 147.839C64.6659 149.013 69.2078 150.914 73.6353 152.768L73.67 152.782C75.7949 153.672 77.8605 154.365 79.8828 155.476C83.1351 157.264 88.0981 158.368 91.506 158.972C101.034 160.661 110.036 161.521 119.796 160.664C132.093 159.586 145.842 156.433 155.743 148.797C159.428 145.954 160.928 142.105 162.254 137.909C165.204 128.576 165.645 118.199 166.38 108.518C166.41 108.124 167.713 95.4941 166.449 95.0031C166.161 94.8909 164.054 97.8723 163.95 98.0089C161.715 100.96 159.615 103.894 156.798 106.381C152.693 110.003 147.741 112.759 142.997 115.51C142.455 115.824 139.665 116.81 139.489 117.58C139.325 118.295 140.143 120.309 140.314 120.942C141.62 125.778 143.436 130.464 144.876 135.259C145.42 137.071 147.577 142.897 143.707 140.892C139.417 138.67 134.889 137.062 130.433 135.192C128.277 134.287 125.331 132.022 122.914 131.808C122.085 131.735 121.909 143.102 121.859 144.01C121.827 144.603 122.471 148.401 120.759 148.24C119.063 148.081 117.305 147.004 115.761 146.392C111.809 144.827 107.939 142.829 103.886 141.538C99.5465 140.156 100.753 150.577 100.63 152.983C100.475 156.036 97.6306 151.161 96.9393 150.266C95.6334 148.575 94.4791 146.843 93.2942 145.078C92.8503 144.417 92.0772 144.617 91.3685 144.722C88.2937 145.178 85.2688 145.371 82.1524 145.412Z" fill="#E1C221" stroke="black" stroke-width="3" stroke-linecap="round"/>
</svg>
